<?xml version="1.0" encoding="utf-8"?>
<!-- Generator: Adobe Illustrator 27.8.1, SVG Export Plug-In . SVG Version: 6.00 Build 0)  -->
<svg version="1.1" xmlns="http://www.w3.org/2000/svg" xmlns:xlink="http://www.w3.org/1999/xlink" x="0px" y="0px"
	 viewBox="0 0 89.04 108" style="enable-background:new 0 0 89.04 108;" xml:space="preserve">
<style type="text/css">
	.st0{opacity:0.9;enable-background:new    ;}
	.st1{fill-rule:evenodd;clip-rule:evenodd;fill:#6497B1;}
	.st2{fill:none;stroke:#000000;stroke-width:0;stroke-miterlimit:100;}
	.st3{fill-rule:evenodd;clip-rule:evenodd;fill:#005B96;}
</style>
<g id="Rectangle_1_00000127044520977289574190000009466964085720753029_" class="st0">
	<g id="Rectangle_1">
		<g>
			<path class="st1" d="M83.17,31.01L46.83,3.07C40.31-1.94,30.97-0.71,25.96,5.8L3.14,35.48C-1.87,42-0.64,51.34,5.87,56.35
				l36.34,27.94c6.52,5.01,15.86,3.79,20.87-2.73L85.9,51.88C90.91,45.36,89.68,36.02,83.17,31.01z"/>
		</g>
		<g>
			<path class="st2" d="M83.17,31.01L46.83,3.07C40.31-1.94,30.97-0.71,25.96,5.8L3.14,35.48C-1.87,42-0.64,51.34,5.87,56.35
				l36.34,27.94c6.52,5.01,15.86,3.79,20.87-2.73L85.9,51.88C90.91,45.36,89.68,36.02,83.17,31.01z"/>
		</g>
	</g>
</g>
<g id="Rectangle_1_00000134955502069731365990000012844639526484481983_" class="st0">
	<g id="Rectangle_1_00000170979037460715197780000003623322178380809092_">
		<g>
			<path class="st3" d="M83.17,51.65L46.83,23.71c-6.52-5.01-15.86-3.79-20.87,2.73L3.14,56.12c-5.01,6.52-3.79,15.86,2.73,20.87
				l36.34,27.94c6.52,5.01,15.86,3.79,20.87-2.73L85.9,72.52C90.91,66,89.68,56.66,83.17,51.65z"/>
		</g>
		<g>
			<path class="st2" d="M83.17,51.65L46.83,23.71c-6.52-5.01-15.86-3.79-20.87,2.73L3.14,56.12c-5.01,6.52-3.79,15.86,2.73,20.87
				l36.34,27.94c6.52,5.01,15.86,3.79,20.87-2.73L85.9,72.52C90.91,66,89.68,56.66,83.17,51.65z"/>
		</g>
	</g>
</g>
</svg>
